<svg xmlns="http://www.w3.org/2000/svg" viewBox="0 0 102.12 58.15"><defs><style>.cls-1{fill:#0e0e0e;}.cls-2{fill:#f1c43b;}.cls-3{fill:#4ac7e9;}.cls-4{fill:#f2e744;}</style></defs><g id="Layer_2" data-name="Layer 2"><g id="Layer_1-2" data-name="Layer 1"><g id="Group_3" data-name="Group 3"><path id="Path_15" data-name="Path 15" class="cls-1" d="M10.14,24.85V44h6.58l.87-19.13Z"/><ellipse id="Ellipse_9" data-name="Ellipse 9" class="cls-1" cx="13.11" cy="45.84" rx="6.99" ry="10.2" transform="translate(-33.53 55.71) rotate(-85.99)"/></g><ellipse id="Ellipse_10" data-name="Ellipse 10" class="cls-1" cx="46.17" cy="31.99" rx="8.01" ry="11.5" transform="translate(10.28 75.21) rotate(-85.01)"/><ellipse id="Ellipse_2" data-name="Ellipse 2" class="cls-2" cx="14.5" cy="14" rx="14.5" ry="14"/><ellipse id="Ellipse_11" data-name="Ellipse 11" class="cls-1" cx="60.84" cy="21.88" rx="7.57" ry="10.78" transform="translate(33.75 80.59) rotate(-85.01)"/><ellipse id="Ellipse_3" data-name="Ellipse 3" class="cls-3" cx="46.17" cy="29.67" rx="5.97" ry="7.72" transform="translate(10.37 71.26) rotate(-82)"/><ellipse id="Ellipse_12" data-name="Ellipse 12" class="cls-1" cx="80.35" cy="16.49" rx="7.43" ry="10.78" transform="translate(56.93 95.1) rotate(-85.01)"/><ellipse id="Ellipse_4" data-name="Ellipse 4" class="cls-4" cx="60.74" cy="19.76" rx="5.97" ry="7.72" transform="translate(32.71 77.16) rotate(-82)"/><ellipse id="Ellipse_13" data-name="Ellipse 13" class="cls-1" cx="56.11" cy="49.67" rx="8.45" ry="12.09" transform="translate(1.74 101.25) rotate(-85.01)"/><ellipse id="Ellipse_5" data-name="Ellipse 5" class="cls-2" cx="80.84" cy="14.52" rx="5.97" ry="7.72" transform="translate(55.21 92.55) rotate(-82)"/><ellipse id="Ellipse_14" data-name="Ellipse 14" class="cls-1" cx="70.76" cy="38.66" rx="7.72" ry="11.07" transform="matrix(0.19, -0.98, 0.98, 0.19, 19.31, 100.74)"/><ellipse id="Ellipse_6" data-name="Ellipse 6" class="cls-3" cx="56.66" cy="47.15" rx="5.97" ry="7.72" transform="translate(2.09 96.69) rotate(-82)"/><ellipse id="Ellipse_15" data-name="Ellipse 15" class="cls-1" cx="91.15" cy="33.42" rx="7.72" ry="11.07" transform="matrix(0.19, -0.98, 0.98, 0.19, 40.96, 116.52)"/><ellipse id="Ellipse_7" data-name="Ellipse 7" class="cls-4" cx="71.51" cy="36.37" rx="5.97" ry="7.72" transform="translate(25.55 102.12) rotate(-82)"/><ellipse id="Ellipse_8" data-name="Ellipse 8" class="cls-2" cx="91.61" cy="30.83" rx="5.97" ry="7.72" transform="translate(48.33 117.26) rotate(-82)"/></g></g></svg>