<svg xmlns="http://www.w3.org/2000/svg" viewBox="0 0 167.11 177.56"><defs><style>.cls-1{fill:#231f20;}.cls-2{fill:#4bc7eb;}.cls-3{fill:#f1ea47;}</style></defs><g id="Layer_2" data-name="Layer 2"><g id="Layer_1-2" data-name="Layer 1"><path class="cls-1" d="M25.41,149.08a9.26,9.26,0,0,1,.14,1.57,6.45,6.45,0,0,1-1,3.89,5.17,5.17,0,0,1-4.73,2A4,4,0,0,1,16,153.89V152.6a1.23,1.23,0,0,0-.46-1l-.28,0q-3,7.5-3,12.6c0,1.14,0,1.54,0,1.2a2.29,2.29,0,0,0,.78,1.39c1.36-.12,2.21-.54,2.55-1.25q.24-.65-.51-1.2a1.77,1.77,0,0,1-.92-.28.86.86,0,0,1-.56-.74,4.27,4.27,0,0,1,.7-2.5L15.4,160c.31,0,1.12-.05,2.43-.16s2.19-.16,2.62-.16a5.49,5.49,0,0,1,4,1.34,6.07,6.07,0,0,1,.88,3.47,14.72,14.72,0,0,1-1,5.24,13.77,13.77,0,0,1-3.15,5,8.8,8.8,0,0,1-5.14,2.69,20.48,20.48,0,0,1-2.5.18,11.09,11.09,0,0,1-7.27-2.64,12.09,12.09,0,0,1-3.48-5.53A26.23,26.23,0,0,1,1.55,161a31.74,31.74,0,0,1,2.09-11.67q2.08-5.33,5.6-7.64a11.52,11.52,0,0,1,5.42-1.25,11.16,11.16,0,0,1,4.87,1.06q5.41,3.71,5.79,7.6Z"/><path class="cls-1" d="M44.5,174.81v0a2.07,2.07,0,0,1-1.7,1.72,6.54,6.54,0,0,1-1.49.17,3.72,3.72,0,0,1-2.29-.66,8.29,8.29,0,0,1-.75-1.09,4.29,4.29,0,0,1-.37-1.92,16.21,16.21,0,0,0-2.62.11,7.37,7.37,0,0,1,.12.78,5.3,5.3,0,0,1-.66,2.44,2.81,2.81,0,0,1-2.44,1.17,8.13,8.13,0,0,1-1.92-.28l-.06-.06c-1.63-.81-2.44-2.8-2.44-6,0-.21,0-.71.06-1.49a41.3,41.3,0,0,1,.83-7.06,17.16,17.16,0,0,1,3-6.49A5.83,5.83,0,0,1,36.72,154a6.29,6.29,0,0,1,5.19,2.15,7.63,7.63,0,0,1,1.47,3A43.09,43.09,0,0,1,45,169.73,27.34,27.34,0,0,1,44.5,174.81Zm-7.26-7.52A44.84,44.84,0,0,0,37,160c-.13-.14-.34-.09-.6.14-.25,1.63-.43,3-.55,4a17.8,17.8,0,0,0-.2,3,.51.51,0,0,0,.49.32,3.93,3.93,0,0,0,.59-.1A3.83,3.83,0,0,1,37.24,167.29Z"/><path class="cls-1" d="M67.52,174a3.83,3.83,0,0,1-.61,2.32,2.17,2.17,0,0,1-1.26.86c-.27.08-.66.17-1.18.29a4,4,0,0,1-.77.14,2.61,2.61,0,0,1-2.1-1.1,4.35,4.35,0,0,1-.86-2.74c0-.42.11-1.4.32-2.93a8.28,8.28,0,0,0,0-2.81c-.1.28-.4,1.15-.89,2.61A8.41,8.41,0,0,1,58.45,174a1.61,1.61,0,0,1-1,.34,1.72,1.72,0,0,1-.94-.31c-1-1.08-1.84-3.15-2.41-6.23a7.09,7.09,0,0,0-.15,1.46c0,.29.08,1.2.23,2.73a9.36,9.36,0,0,1,0,2.61,4.08,4.08,0,0,1-1.23,2.24,3.91,3.91,0,0,1-1.93.57,3.15,3.15,0,0,1-2.32-1.12,17,17,0,0,1-1.38-2.67,12.93,12.93,0,0,1-.43-3.87q0-2.38.4-8.44a6.42,6.42,0,0,1,1.28-3.57,5.7,5.7,0,0,1,3.06-2q3.81-.1,5.79,6.58a16,16,0,0,1,.89-3.28q1.09-3,2.47-3.64a8.23,8.23,0,0,1,2.3-.4,3,3,0,0,1,2.41,1A5.32,5.32,0,0,1,67,158.48a16.12,16.12,0,0,1,.37,3.38l.06,4.25q.12,4.71.12,7.81Z"/><path class="cls-1" d="M82.24,163.47a2.65,2.65,0,0,1,.09.89,3.2,3.2,0,0,1-1.24,2.55,3,3,0,0,1-2.41.84,2.16,2.16,0,0,0-.86,0,8.2,8.2,0,0,1-.2,1.84,1.12,1.12,0,0,0,.6,1,3,3,0,0,1,1.93,0,1.82,1.82,0,0,1,1.29,1.55,3.73,3.73,0,0,1-.72,2.51,7,7,0,0,1-2.38,2.14,6.36,6.36,0,0,1-3.19.77,6.81,6.81,0,0,1-2.9-.6,6.21,6.21,0,0,1-1.63-1.61q-1.19-1.95-1.21-8.23a58.65,58.65,0,0,1,.6-8.27c.25-1.8.77-3,1.55-3.5l4.8-.49a11.58,11.58,0,0,1,2.35-.26c1.49,0,2.37.37,2.64,1.12a2.82,2.82,0,0,1,.17,1,2.47,2.47,0,0,1-.92,2,3.81,3.81,0,0,1-2.55.78h-.63a3.55,3.55,0,0,0-.23,1.36c0,.8-.07,1.26-.09,1.37a.68.68,0,0,0,.61.51,3.25,3.25,0,0,1,2.09-.66A2.91,2.91,0,0,1,82.24,163.47Z"/><path class="cls-1" d="M113.09,149.08a9.26,9.26,0,0,1,.14,1.57,6.45,6.45,0,0,1-1,3.89,5.15,5.15,0,0,1-4.72,2,4,4,0,0,1-3.85-2.69V152.6a1.2,1.2,0,0,0-.46-1l-.28,0q-3,7.5-3,12.6c0,1.14,0,1.54,0,1.2a2.26,2.26,0,0,0,.79,1.39c1.36-.12,2.2-.54,2.54-1.25.16-.43,0-.83-.5-1.2a1.78,1.78,0,0,1-.93-.28.86.86,0,0,1-.56-.74,4.27,4.27,0,0,1,.7-2.5l1.16-.93c.3,0,1.11-.05,2.43-.16s2.18-.16,2.61-.16a5.49,5.49,0,0,1,4,1.34,6.07,6.07,0,0,1,.88,3.47,14.92,14.92,0,0,1-1,5.24,14,14,0,0,1-3.15,5,8.83,8.83,0,0,1-5.15,2.69,20.35,20.35,0,0,1-2.5.18A11.11,11.11,0,0,1,94,174.92a12,12,0,0,1-3.47-5.53A26,26,0,0,1,89.24,161a31.74,31.74,0,0,1,2.08-11.67q2.09-5.33,5.61-7.64a11.47,11.47,0,0,1,5.41-1.25,11.13,11.13,0,0,1,4.87,1.06q5.42,3.71,5.79,7.6Z"/><path class="cls-1" d="M128.36,163.47a2.93,2.93,0,0,1,.08.89,3.19,3.19,0,0,1-1.23,2.55,3.05,3.05,0,0,1-2.41.84,2.16,2.16,0,0,0-.86,0,8.2,8.2,0,0,1-.2,1.84,1.12,1.12,0,0,0,.6,1,3,3,0,0,1,1.92,0,1.79,1.79,0,0,1,1.29,1.55,3.67,3.67,0,0,1-.71,2.51,7,7,0,0,1-2.39,2.14,6.32,6.32,0,0,1-3.18.77,6.81,6.81,0,0,1-2.9-.6,6.35,6.35,0,0,1-1.64-1.61q-1.17-1.95-1.2-8.23a58.65,58.65,0,0,1,.6-8.27c.25-1.8.77-3,1.55-3.5l4.79-.49a11.75,11.75,0,0,1,2.36-.26c1.49,0,2.37.37,2.64,1.12a3,3,0,0,1,.17,1,2.5,2.5,0,0,1-.92,2,3.81,3.81,0,0,1-2.55.78h-.63a3.55,3.55,0,0,0-.23,1.36c0,.8-.07,1.26-.09,1.37a.69.69,0,0,0,.6.51,3.29,3.29,0,0,1,2.1-.66A2.92,2.92,0,0,1,128.36,163.47Z"/><path class="cls-1" d="M143.08,163.47a2.65,2.65,0,0,1,.09.89,3.17,3.17,0,0,1-1.24,2.55,3,3,0,0,1-2.41.84,2.16,2.16,0,0,0-.86,0,8.2,8.2,0,0,1-.2,1.84,1.12,1.12,0,0,0,.6,1,3,3,0,0,1,1.93,0,1.82,1.82,0,0,1,1.29,1.55,3.73,3.73,0,0,1-.72,2.51,7,7,0,0,1-2.38,2.14,6.36,6.36,0,0,1-3.19.77,6.81,6.81,0,0,1-2.9-.6,6.21,6.21,0,0,1-1.63-1.61q-1.19-1.95-1.21-8.23a58.65,58.65,0,0,1,.6-8.27c.25-1.8.77-3,1.55-3.5l4.8-.49a11.65,11.65,0,0,1,2.35-.26c1.49,0,2.37.37,2.64,1.12a2.82,2.82,0,0,1,.17,1,2.49,2.49,0,0,1-.91,2,3.86,3.86,0,0,1-2.56.78h-.63a3.76,3.76,0,0,0-.23,1.36c0,.8-.07,1.26-.09,1.37a.69.69,0,0,0,.61.51,3.25,3.25,0,0,1,2.09-.66A2.91,2.91,0,0,1,143.08,163.47Z"/><path class="cls-1" d="M147,155.57h0a3.17,3.17,0,0,1,2.73-1.2,2.81,2.81,0,0,1,2.9,1.63c0,.5.05.9.05,1.21s0,1.13-.11,2.24-.12,1.77-.12,2a.41.41,0,0,0,.38.26.31.31,0,0,0,.31-.23.4.4,0,0,1,0-.21,10.66,10.66,0,0,1,1-3.73q1.23-2.93,2.75-3.35c2.17-.14,3.62.46,4.37,1.8a3.53,3.53,0,0,1,.4,1.7,10.13,10.13,0,0,1-1.87,5.51c-.42.63-1,1.58-1.86,2.84.26.44.73,1.24,1.4,2.41,1.28,2.32,1.93,4.13,1.93,5.45a4.28,4.28,0,0,1-.87,2.67,2.83,2.83,0,0,1-2.15,1q-1.38.13-3.3-3.07a17.29,17.29,0,0,1-1.86-3.88,1.67,1.67,0,0,0-.58-.26l-.2.2a18.37,18.37,0,0,1,.32,2.9,5.27,5.27,0,0,1-.69,2.9,4.37,4.37,0,0,1-2.76.86,3.54,3.54,0,0,1-2.21-.66c-1.36-1-2-4-2-9a48.48,48.48,0,0,1,.62-7.82C146.06,157.26,146.53,155.86,147,155.57Z"/><path class="cls-1" d="M76,59.82c-.75,0-2,.06-3.58.16l.06-.06.3-.28c.09-.1.2-.19.29-.29l.3-.28c.09-.1.2-.18.29-.29l.3-.28c.09-.1.2-.18.29-.28s.21-.19.3-.29.2-.18.29-.28.21-.19.3-.29l.3-.28c.09-.1.2-.18.29-.29l.3-.28c.09-.1.2-.18.29-.28l.3-.29c.09-.1.2-.18.29-.28l.3-.29a3.83,3.83,0,0,0,.29-.28c.1-.1.21-.18.3-.28l.3-.29c.09-.1.2-.18.29-.28l.3-.29c.09-.1.2-.18.29-.28s.2-.18.3-.29.2-.18.29-.28l.3-.28.29-.29c.1-.1.21-.18.3-.28l.29-.29a4,4,0,0,0,.3-.28c.1-.1.2-.18.3-.29s.2-.18.29-.28l.3-.28c.09-.1.2-.19.29-.29l.3-.28c.09-.1.2-.19.29-.29l.3-.28c.09-.1.2-.18.29-.28s.21-.19.3-.29.2-.18.29-.28.21-.19.3-.29l.3-.28c.09-.1.2-.18.29-.29l.3-.28c.09-.1.2-.18.29-.28l.3-.29c.09-.1.2-.18.29-.28l.3-.29c.1-.1.2-.18.29-.28s.21-.19.3-.29a15.09,15.09,0,0,0,1.55-1.8q3.12-4.27,3.13-11.94a28.16,28.16,0,0,0-.43-4.83h-.28Q89.8,15.48,73.17,4.11A34.07,34.07,0,0,0,58.25.84,35.51,35.51,0,0,0,41.62,4.68a34.75,34.75,0,0,0-5.24,4.24l-.3.29-.29.28-.3.29-.3.28c-.09.1-.19.19-.29.29l-.3.28-.29.28-.3.29-.29.28-.3.29-.29.28-.3.29a3.83,3.83,0,0,0-.29.28l-.3.28-.3.29-.29.28-.3.29-.29.28-.3.29a3.83,3.83,0,0,0-.29.28l-.3.28c-.1.1-.2.19-.29.29l-.3.28-.29.29L29,16l-.3.29-.29.28-.3.28-.29.29-.3.28-.29.29-.3.28-.29.28-.3.29-.3.28-.29.29-.3.28-.29.29-.3.28-.29.28-.3.29-.29.28-.3.29-.3.28c-.09.1-.19.19-.29.29l-.3.28-.29.28-.3.29-.29.28-.3.29a3.83,3.83,0,0,0-.29.28l-.3.28-.29.29-.3.28-.3.29-.29.28-.3.29-.29.28-.3.28c-.1.1-.2.19-.29.29Q11.26,33.06,6.4,45.46A97.38,97.38,0,0,0,0,81.28a80.08,80.08,0,0,0,3.84,25.8q3.84,11.3,10.66,17a34,34,0,0,0,22.31,8.1,61,61,0,0,0,7.68-.57q8.65-1.12,15.77-8.24a.46.46,0,0,1,.07-.07l.23-.22.06-.06c.08-.08.16-.14.23-.22l.07-.07.23-.21.06-.07c.08-.08.16-.14.23-.22a.23.23,0,0,0,.07-.07l.23-.21.06-.07c.08-.08.16-.14.23-.22l.07-.06.23-.22.06-.07.24-.21.06-.07.23-.22a.46.46,0,0,1,.07-.07l.23-.21.06-.07c.08-.08.16-.14.23-.22l.07-.07.23-.21.06-.07c.08-.08.16-.14.23-.22l.07-.06c.07-.08.15-.14.23-.22l.06-.07.23-.21.07-.07c.07-.08.15-.14.23-.22l.06-.07.23-.21.07-.07.23-.22.07-.07.23-.21.06-.07a2.39,2.39,0,0,0,.23-.22l.07-.06c.07-.08.15-.14.23-.22l.06-.07.23-.21a.23.23,0,0,1,.07-.07c.07-.08.15-.14.23-.22l.06-.07.23-.21a.46.46,0,0,0,.07-.07c.07-.08.15-.14.23-.22l.06-.07.23-.21a.46.46,0,0,0,.07-.07l.23-.22.06-.06c.08-.08.16-.14.23-.22a.46.46,0,0,0,.07-.07l.23-.21a.23.23,0,0,1,.07-.07c.07-.08.15-.14.23-.22l.06-.07.23-.21a.46.46,0,0,1,.07-.07c.07-.08.15-.14.23-.22l.06-.06c.08-.08.16-.14.23-.22l.07-.07.23-.21.06-.07c.08-.08.16-.14.23-.22l.07-.07.23-.21.06-.07c.08-.08.16-.14.23-.22a.23.23,0,0,0,.07-.07l.23-.21a.46.46,0,0,1,.07-.07c.07-.08.15-.14.23-.22l.06-.06.23-.22.07-.07.23-.21.06-.07c.08-.08.16-.14.23-.22l.07-.07.23-.21.06-.07c.08-.08.16-.14.23-.22a.23.23,0,0,0,.07-.07l.23-.21.06-.07a2.39,2.39,0,0,0,.23-.22l.07-.06c.07-.08.15-.14.23-.22l.06-.07.23-.21.07-.07.23-.22.06-.07.24-.21.06-.07c.08-.08.16-.14.23-.22l.07-.07.23-.21.06-.07a2.39,2.39,0,0,0,.23-.22l.07-.06c.07-.08.15-.14.23-.22l.06-.07.23-.21.07-.07c.07-.08.15-.14.23-.22l.06-.07.23-.21.07-.07.23-.22.06-.07c.08-.07.16-.13.24-.21l.06-.07.23-.21a.23.23,0,0,1,.07-.07c.07-.08.15-.14.23-.22A42.45,42.45,0,0,0,88,90.66,45.22,45.22,0,0,0,91.08,74.6q0-6.67-2.7-10.66Q84.26,59.83,76,59.82ZM52.83,67.64l0,.08-.25.2,0,.09-.25.2a.56.56,0,0,0-.05.08l-.25.2,0,.09-.25.19,0,.09-.25.2s0,0,0,.08l-.25.2h0c.07-.81.15-1.64.25-2.48a14,14,0,0,0,1.8.53l0,0Z"/><path class="cls-1" d="M147.66,59.82c-.76,0-2,.06-3.58.16l.06-.06c.09-.1.2-.18.29-.28l.3-.29c.09-.09.2-.18.29-.28s.2-.18.3-.29.2-.18.29-.28.21-.18.3-.28.2-.19.29-.29.21-.18.3-.28l.3-.29c.09-.09.2-.18.29-.28s.2-.18.3-.29.2-.18.29-.28l.3-.28c.09-.1.2-.19.29-.29l.3-.28c.1-.1.2-.19.29-.29a4,4,0,0,0,.3-.28l.3-.28.29-.29.3-.28c.09-.1.2-.19.29-.29l.3-.28c.09-.1.2-.18.29-.29l.3-.28c.09-.1.2-.18.29-.28l.3-.29c.1-.1.2-.18.29-.28s.21-.19.3-.29l.3-.28c.09-.1.2-.18.29-.29l.3-.28c.09-.1.2-.18.29-.28l.3-.29c.09-.1.2-.18.29-.28l.3-.29c.09-.09.2-.18.29-.28s.21-.18.3-.28l.3-.29c.09-.1.2-.18.29-.28l.3-.29c.09-.1.2-.18.29-.28s.2-.18.3-.29.2-.18.29-.28l.3-.28c.09-.1.2-.19.29-.29l.3-.28.29-.29c.1-.1.21-.18.3-.28l.3-.29a15,15,0,0,0,1.54-1.8q3.14-4.27,3.13-11.94a27.19,27.19,0,0,0-.43-4.83h-.28q-1.14-11.94-17.77-23.31A34,34,0,0,0,129.89.84a35.53,35.53,0,0,0-16.63,3.84A35.26,35.26,0,0,0,108,8.92c-.1.1-.2.19-.29.29l-.3.28-.29.29-.3.28-.3.29-.29.28-.3.28-.29.29-.3.28-.29.29-.3.28c-.1.1-.2.19-.29.29l-.3.28-.3.28c-.09.1-.19.19-.29.29l-.3.28-.29.29-.3.28-.29.29-.3.28-.29.28-.3.29-.29.28-.3.29a3.83,3.83,0,0,0-.29.28l-.3.29-.3.28-.29.28-.3.29-.29.28-.3.29a3.83,3.83,0,0,0-.29.28l-.3.28-.3.29-.29.28-.3.29-.29.28-.3.29L96.5,20l-.3.28-.29.29-.3.28-.29.29-.3.28-.3.29-.29.28-.3.28-.29.29-.3.28-.29.29-.3.28-.29.28-.3.29-.29.28-.3.29-.3.28-.29.29-.3.28-.29.28-.3.29Q82.9,33.06,78,45.46a97.58,97.58,0,0,0-6.39,35.82,80.09,80.09,0,0,0,3.83,25.8q3.84,11.3,10.66,17a34.09,34.09,0,0,0,22.32,8.1,61,61,0,0,0,7.67-.57q8.67-1.12,15.78-8.24l.06-.07a2.39,2.39,0,0,0,.23-.22l.07-.06c.07-.08.15-.14.23-.22l.06-.07.23-.21.07-.07c.07-.08.15-.14.23-.22l.06-.07.23-.21.07-.07.23-.22.06-.06.24-.22.06-.07.23-.21a.23.23,0,0,1,.07-.07c.07-.08.15-.14.23-.22l.06-.07.23-.21a.23.23,0,0,1,.07-.07c.07-.08.15-.14.23-.22l.06-.07.23-.21.07-.07c.07-.08.15-.14.23-.22l.06-.06c.08-.08.16-.14.23-.22l.07-.07.23-.21.06-.07c.08-.08.16-.14.23-.22a.46.46,0,0,0,.07-.07l.23-.21.06-.07.24-.22.06-.07.23-.21.07-.07.23-.22.06-.06c.08-.08.16-.14.23-.22a.46.46,0,0,1,.07-.07l.23-.21.06-.07c.08-.08.16-.14.23-.22a.23.23,0,0,0,.07-.07l.23-.21.06-.07c.08-.08.16-.14.23-.22a.23.23,0,0,0,.07-.07l.23-.21.06-.07a2.39,2.39,0,0,0,.23-.22l.07-.06.23-.22.06-.07.24-.21.06-.07c.08-.08.16-.14.23-.22l.07-.07.23-.21.06-.07c.08-.08.16-.14.23-.22l.07-.06c.07-.08.15-.14.23-.22l.06-.07.23-.21.07-.07c.07-.08.15-.14.23-.22l.06-.07.23-.21.07-.07.23-.22.07-.07.23-.21.06-.07c.08-.08.16-.14.23-.22l.07-.06c.07-.08.15-.14.23-.22l.06-.07.23-.21a.23.23,0,0,1,.07-.07c.07-.08.15-.14.23-.22l.06-.07.23-.21.07-.07c.07-.08.15-.14.23-.22l.06-.07.23-.21a.46.46,0,0,0,.07-.07l.23-.22.06-.06c.08-.08.16-.14.23-.22l.07-.07.23-.21a.23.23,0,0,1,.07-.07c.07-.08.15-.14.23-.22l.06-.07.23-.21.07-.07c.07-.08.15-.14.23-.22l.06-.07.23-.21.07-.07.23-.22.06-.06c.08-.08.16-.14.23-.22l.07-.07.23-.21.06-.07c.08-.08.16-.14.23-.22l.07-.07.23-.21.06-.07.24-.22.06-.07.23-.21a.46.46,0,0,1,.07-.07l.23-.21.06-.07c.08-.08.16-.14.23-.22a42.47,42.47,0,0,0,9.67-15.35,45.2,45.2,0,0,0,3.12-16.06q0-6.67-2.7-10.66Q155.9,59.83,147.66,59.82Zm-23.18,7.82,0,.08-.25.2-.05.09-.25.2a.59.59,0,0,0,0,.08l-.25.2,0,.09-.25.19,0,.09-.25.2,0,.08-.25.2h0c.06-.81.14-1.64.24-2.48a14.12,14.12,0,0,0,1.81.53l0,0Z"/><path class="cls-2" d="M129.66,109.83A33.11,33.11,0,0,1,108.07,102c-4.42-3.67-7.89-9.18-10.33-16.37a75.36,75.36,0,0,1-3.6-24.17,91.19,91.19,0,0,1,6-33.4c4-10.27,9.55-17.78,16.43-22.31l.08,0,.09-.05a34.47,34.47,0,0,1,16.07-3.72,33.23,33.23,0,0,1,14.45,3.17l.14.07.12.08c9.78,6.69,15.42,13.73,16.8,21h.21l.27,1.58a27.23,27.23,0,0,1,.42,4.75c0,5.06-1.08,9.11-3.22,12-3.13,4.32-7.75,6.52-13.74,6.52l-1.13,0c-6.09-.3-10.41-3.33-12.48-8.76l-.13-.34V40.36a109.15,109.15,0,0,0-6,23.09A17.62,17.62,0,0,1,130,60.22l.18-.3,4-3.24h.68c.56,0,2.17-.08,6.65-.45,3.78-.31,6.23-.46,7.49-.46,5.52,0,9.77,1.46,12.65,4.33l.13.13.1.15c1.85,2.74,2.79,6.37,2.79,10.81a43.45,43.45,0,0,1-3,15.34,40.85,40.85,0,0,1-9.27,14.69,26.73,26.73,0,0,1-15.51,8.08A59.25,59.25,0,0,1,129.66,109.83Zm-1.77-35.54a4.51,4.51,0,0,0,1,1.63c1.87-.27,3.88-.87,4.61-2.22,0-.14,0-.39-.44-.82a6.15,6.15,0,0,1-2.85-1,4.32,4.32,0,0,1-2.2-2.49c0,.43,0,.84,0,1.26,0,1.25,0,2.19,0,2.81C127.93,73.71,127.92,74,127.89,74.29Z"/><path class="cls-1" d="M132.78,3.84a31.08,31.08,0,0,1,13.62,3q15.19,10.4,16.23,21.29h.25a25.27,25.27,0,0,1,.39,4.41q0,7-2.85,10.9-4.15,5.73-12.19,5.73l-1,0q-8-.39-10.77-7.53V38a3.32,3.32,0,0,0-1.3-2.73l-.77.13Q126,56.4,126,70.67a30.23,30.23,0,0,1-.08,3.7,1.23,1.23,0,0,1,0-.33,6.51,6.51,0,0,0,2.21,3.9q5.7-.52,7.14-3.51.65-1.82-1.43-3.37a5,5,0,0,1-2.6-.78,2.43,2.43,0,0,1-1.56-2.08,12.05,12.05,0,0,1,2-7l3.25-2.6q1.29,0,6.81-.45c3.67-.31,6.12-.46,7.33-.46q7.53,0,11.29,3.76,2.46,3.64,2.47,9.74a41.27,41.27,0,0,1-2.86,14.66,38.89,38.89,0,0,1-8.82,14,24.73,24.73,0,0,1-14.41,7.52,55,55,0,0,1-7,.52,31.07,31.07,0,0,1-20.37-7.4q-6.23-5.17-9.73-15.5a73,73,0,0,1-3.5-23.56,89.06,89.06,0,0,1,5.83-32.7q5.85-14.91,15.71-21.41a32.47,32.47,0,0,1,15.18-3.5m0-3.84a36.29,36.29,0,0,0-17,3.94l-.18.09-.16.11c-7.22,4.75-13,12.56-17.17,23.21a93.28,93.28,0,0,0-6.1,34.1,77.22,77.22,0,0,0,3.7,24.79c2.56,7.53,6.23,13.32,10.91,17.22a35,35,0,0,0,22.83,8.29,61,61,0,0,0,7.5-.55,28.54,28.54,0,0,0,16.63-8.62A42.7,42.7,0,0,0,163.5,87.2a45.3,45.3,0,0,0,3.09-16c0-4.83-1.05-8.83-3.12-11.89l-.21-.3-.26-.26c-3.24-3.24-7.95-4.89-14-4.89-1.32,0-3.82.16-7.65.47-4.64.38-6.06.44-6.49.44h-1.35l-1,.84-.75.6q1.06-4.71,2.77-9.94c2.69,4.13,7,6.43,12.52,6.7l1.23,0c6.64,0,11.79-2.46,15.3-7.32,2.37-3.24,3.58-7.67,3.58-13.15a30,30,0,0,0-.44-5.08l-.56-3.17h-.29c-1.94-7.18-7.72-14.1-17.25-20.62l-.24-.16-.27-.13A35.06,35.06,0,0,0,132.78,0Z"/><path class="cls-3" d="M56.71,109.83A33.14,33.14,0,0,1,35.11,102c-4.41-3.67-7.89-9.18-10.33-16.37a75.36,75.36,0,0,1-3.6-24.17,91.4,91.4,0,0,1,6-33.4c4-10.27,9.55-17.78,16.43-22.31l.09,0,.08-.05A34.5,34.5,0,0,1,59.82,1.92,33.27,33.27,0,0,1,74.28,5.09l.13.07.12.08C84.31,11.93,90,19,91.33,26.19h.21l.28,1.58a27.23,27.23,0,0,1,.42,4.75c0,5.06-1.09,9.11-3.23,12-3.13,4.32-7.75,6.52-13.74,6.52l-1.13,0c-6.09-.3-10.4-3.33-12.48-8.76L61.54,42V40.36a108.63,108.63,0,0,0-6,23.09A18.3,18.3,0,0,1,57,60.22l.18-.3,4-3.24h.68c.56,0,2.17-.08,6.65-.45,3.78-.31,6.23-.46,7.49-.46,5.52,0,9.78,1.46,12.65,4.33l.13.13.1.15c1.86,2.74,2.8,6.37,2.8,10.81a43.25,43.25,0,0,1-3,15.34,40.83,40.83,0,0,1-9.26,14.69A26.72,26.72,0,0,1,64,109.3,59,59,0,0,1,56.71,109.83ZM54.93,74.29a4.42,4.42,0,0,0,1,1.63c1.86-.27,3.88-.87,4.6-2.22,0-.14,0-.39-.44-.82a6.15,6.15,0,0,1-2.85-1A4.32,4.32,0,0,1,55,69.41c0,.43,0,.85,0,1.26,0,1.25,0,2.19,0,2.81C55,73.71,55,74,54.93,74.29Z"/><path class="cls-1" d="M59.82,3.84a31.13,31.13,0,0,1,13.63,3q15.18,10.4,16.22,21.29h.26a25.27,25.27,0,0,1,.39,4.41q0,7-2.86,10.9-4.14,5.73-12.19,5.73l-1,0q-8.06-.39-10.77-7.53V38a3.35,3.35,0,0,0-1.3-2.73l-.78.13q-8.31,21-8.31,35.3a35.42,35.42,0,0,1-.07,3.7s0-.11-.06-.33a6.57,6.57,0,0,0,2.21,3.9c3.81-.35,6.18-1.52,7.14-3.51q.65-1.82-1.43-3.37a4.91,4.91,0,0,1-2.59-.78,2.39,2.39,0,0,1-1.56-2.08,12,12,0,0,1,1.94-7l3.25-2.6q1.29,0,6.81-.45T76,57.69q7.53,0,11.29,3.76,2.46,3.64,2.47,9.74a41.05,41.05,0,0,1-2.86,14.66,38.63,38.63,0,0,1-8.82,14,24.73,24.73,0,0,1-14.4,7.52,55.13,55.13,0,0,1-7,.52,31.07,31.07,0,0,1-20.38-7.4Q30.11,95.34,26.6,85a73.29,73.29,0,0,1-3.5-23.56,89.06,89.06,0,0,1,5.84-32.7q5.83-14.91,15.7-21.41a32.52,32.52,0,0,1,15.18-3.5m0-3.84a36.29,36.29,0,0,0-17,3.94L42.69,4l-.16.11c-7.22,4.75-13,12.56-17.17,23.21a93.28,93.28,0,0,0-6.1,34.1A77.21,77.21,0,0,0,23,86.24c2.55,7.53,6.22,13.32,10.91,17.22a35,35,0,0,0,22.83,8.29,61.25,61.25,0,0,0,7.5-.55,28.51,28.51,0,0,0,16.62-8.62A42.7,42.7,0,0,0,90.54,87.2a45.31,45.31,0,0,0,3.1-16c0-4.83-1-8.83-3.13-11.89l-.2-.3-.26-.26c-3.25-3.24-8-4.89-14-4.89-1.32,0-3.82.16-7.64.47-4.65.38-6.07.44-6.5.44H60.55l-1,.84-.75.6q1.08-4.71,2.77-9.94C64.21,50.39,68.47,52.69,74,53l1.23,0c6.64,0,11.79-2.46,15.3-7.32C93,42.43,94.16,38,94.16,32.52a29,29,0,0,0-.45-5.08l-.56-3.17h-.29c-1.93-7.18-7.72-14.1-17.25-20.62l-.24-.16-.26-.13A35.1,35.1,0,0,0,59.82,0Z"/></g></g></svg>